<?xml version="1.0" encoding="UTF-8"?>
<svg width="528px" height="100px" xmlns="http://www.w3.org/2000/svg">
    <rect width="528" height="100" fill="white"/>
    <rect x="30" width="6" height="100"/>
    <rect x="39" width="3" height="100"/>
    <rect x="48" width="3" height="100"/>
    <rect x="63" width="6" height="100"/>
    <rect x="78" width="3" height="100"/>
    <rect x="84" width="3" height="100"/>
    <rect x="96" width="3" height="100"/>
    <rect x="102" width="6" height="100"/>
    <rect x="114" width="3" height="100"/>
    <rect x="129" width="6" height="100"/>
    <rect x="141" width="3" height="100"/>
    <rect x="147" width="3" height="100"/>
    <rect x="162" width="6" height="100"/>
    <rect x="174" width="3" height="100"/>
    <rect x="180" width="3" height="100"/>
    <rect x="195" width="3" height="100"/>
    <rect x="207" width="12" height="100"/>
    <rect x="222" width="3" height="100"/>
    <rect x="228" width="6" height="100"/>
    <rect x="237" width="6" height="100"/>
    <rect x="249" width="6" height="100"/>
    <rect x="261" width="9" height="100"/>
    <rect x="273" width="3" height="100"/>
    <rect x="285" width="6" height="100"/>
    <rect x="294" width="3" height="100"/>
    <rect x="306" width="12" height="100"/>
    <rect x="321" width="3" height="100"/>
    <rect x="327" width="3" height="100"/>
    <rect x="336" width="3" height="100"/>
    <rect x="345" width="12" height="100"/>
    <rect x="360" width="6" height="100"/>
    <rect x="372" width="3" height="100"/>
    <rect x="378" width="3" height="100"/>
    <rect x="393" width="3" height="100"/>
    <rect x="408" width="3" height="100"/>
    <rect x="417" width="6" height="100"/>
    <rect x="426" width="3" height="100"/>
    <rect x="432" width="6" height="100"/>
    <rect x="447" width="9" height="100"/>
    <rect x="459" width="6" height="100"/>
    <rect x="474" width="9" height="100"/>
    <rect x="486" width="3" height="100"/>
    <rect x="492" width="6" height="100"/>
</svg>